HIERARCHY
ROOT hip
{
  OFFSET 0 0 0
  CHANNELS 6 Xposition Yposition Zposition Zrotation Yrotation Xrotation
  JOINT abdomen
  {
    OFFSET 0 20.6881 -0.73152
    CHANNELS 3 Zrotation Xrotation Yrotation
    JOINT chest
    {
      OFFSET 0 11.7043 -0.48768
      CHANNELS 3 Zrotation Xrotation Yrotation
      JOINT neck
      {
        OFFSET 0 22.1894 -2.19456
        CHANNELS 3 Zrotation Xrotation Yrotation
        JOINT head
        {
          OFFSET -0.24384 7.07133 1.2192
          CHANNELS 3 Zrotation Xrotation Yrotation
          JOINT leftEye
          {
            OFFSET 4.14528 8.04674 8.04672
            CHANNELS 3 Zrotation Xrotation Yrotation
            End Site
            {
              OFFSET 1 0 0
            }
          }
          JOINT rightEye
          {
            OFFSET -3.6576 8.04674 8.04672
            CHANNELS 3 Zrotation Xrotation Yrotation
            End Site
            {
              OFFSET 1 0 0
            }
          }
        }
      }
      JOINT rCollar
      {
        OFFSET -2.68224 19.2634 -4.8768
        CHANNELS 3 Zrotation Xrotation Yrotation
        JOINT rShldr
        {
          OFFSET -8.77824 -1.95073 1.46304
          CHANNELS 3 Zrotation Xrotation Yrotation
          JOINT rForeArm
          {
            OFFSET -28.1742 -1.7115 0.48768
            CHANNELS 3 Zrotation Xrotation Yrotation
            JOINT rHand
            {
              OFFSET -22.5879 0.773209 7.07136
              CHANNELS 3 Zrotation Xrotation Yrotation
              JOINT rThumb1
              {
                OFFSET -1.2192 -0.487915 3.41376
                CHANNELS 3 Zrotation Xrotation Yrotation
                JOINT rThumb2
                {
                  OFFSET -3.37035 -0.52449 3.41376
                  CHANNELS 3 Zrotation Xrotation Yrotation
                  End Site
                  {
                    OFFSET -1.78271 -1.18214 1.43049
                  }
                }
              }
              JOINT rIndex1
              {
                OFFSET -7.75947 0.938293 5.60832
                CHANNELS 3 Zrotation Xrotation Yrotation
                JOINT rIndex2
                {
                  OFFSET -2.54057 -0.884171 1.56538
                  CHANNELS 3 Zrotation Xrotation Yrotation
                  End Site
                  {
                    OFFSET -1.62519 -0.234802 1.16502
                  }
                }
              }
              JOINT rMid1
              {
                OFFSET -8.24714 1.18213 3.41376
                CHANNELS 3 Zrotation Xrotation Yrotation
                JOINT rMid2
                {
                  OFFSET -3.10165 -0.590103 1.0647
                  CHANNELS 3 Zrotation Xrotation Yrotation
                  End Site
                  {
                    OFFSET -2.48547 -0.328903 0.83742
                  }
                }
              }
              JOINT rRing1
              {
                OFFSET -8.82822 0.546677 1.51678
                CHANNELS 3 Zrotation Xrotation Yrotation
                JOINT rRing2
                {
                  OFFSET -2.60934 -0.819778 -0.0198488
                  CHANNELS 3 Zrotation Xrotation Yrotation
                  End Site
                  {
                    OFFSET -2.33842 -0.294052 0.168128
                  }
                }
              }
              JOINT rPinky1
              {
                OFFSET -8.27202 -0.0477905 -0.4584
                CHANNELS 3 Zrotation Xrotation Yrotation
                JOINT rPinky2
                {
                  OFFSET -1.82734 -0.647385 -0.700984
                  CHANNELS 3 Zrotation Xrotation Yrotation
                  End Site
                  {
                    OFFSET -1.69225 -0.51767 -0.607171
                  }
                }
              }
            }
          }
        }
      }
      JOINT lCollar
      {
        OFFSET 2.68224 19.2634 -4.8768
        CHANNELS 3 Zrotation Xrotation Yrotation
        JOINT lShldr
        {
          OFFSET 8.77824 -1.95073 1.46304
          CHANNELS 3 Zrotation Xrotation Yrotation
          JOINT lForeArm
          {
            OFFSET 28.1742 -1.7115 0.48768
            CHANNELS 3 Zrotation Xrotation Yrotation
            JOINT lHand
            {
              OFFSET 22.5879 0.773209 7.07136
              CHANNELS 3 Zrotation Xrotation Yrotation
              JOINT lThumb1
              {
                OFFSET 1.2192 -0.487915 3.41376
                CHANNELS 3 Zrotation Xrotation Yrotation
                JOINT lThumb2
                {
                  OFFSET 3.37035 -0.52449 3.41376
                  CHANNELS 3 Zrotation Xrotation Yrotation
                  End Site
                  {
                    OFFSET 1.78271 -1.18214 1.43049
                  }
                }
              }
              JOINT lIndex1
              {
                OFFSET 7.75947 0.938293 5.60832
                CHANNELS 3 Zrotation Xrotation Yrotation
                JOINT lIndex2
                {
                  OFFSET 2.54057 -0.884171 1.56538
                  CHANNELS 3 Zrotation Xrotation Yrotation
                  End Site
                  {
                    OFFSET 1.62519 -0.234802 1.16502
                  }
                }
              }
              JOINT lMid1
              {
                OFFSET 8.24714 1.18213 3.41376
                CHANNELS 3 Zrotation Xrotation Yrotation
                JOINT lMid2
                {
                  OFFSET 3.10165 -0.590103 1.0647
                  CHANNELS 3 Zrotation Xrotation Yrotation
                  End Site
                  {
                    OFFSET 2.48547 -0.328903 0.83742
                  }
                }
              }
              JOINT lRing1
              {
                OFFSET 8.82822 0.546677 1.51678
                CHANNELS 3 Zrotation Xrotation Yrotation
                JOINT lRing2
                {
                  OFFSET 2.60934 -0.819778 -0.0198488
                  CHANNELS 3 Zrotation Xrotation Yrotation
                  End Site
                  {
                    OFFSET 2.33842 -0.294052 0.168128
                  }
                }
              }
              JOINT lPinky1
              {
                OFFSET 8.27202 -0.0477905 -0.4584
                CHANNELS 3 Zrotation Xrotation Yrotation
                JOINT lPinky2
                {
                  OFFSET 1.82734 -0.647385 -0.700984
                  CHANNELS 3 Zrotation Xrotation Yrotation
                  End Site
                  {
                    OFFSET 1.69225 -0.51767 -0.607171
                  }
                }
              }
            }
          }
        }
      }
    }
  }
  JOINT rButtock
  {
    OFFSET -8.77824 4.35084 1.2192
    CHANNELS 3 Zrotation Xrotation Yrotation
    JOINT rThigh
    {
      OFFSET 0 -1.70687 -2.19456
      CHANNELS 3 Zrotation Xrotation Yrotation
      JOINT rShin
      {
        OFFSET 0 -36.8199 0.73152
        CHANNELS 3 Zrotation Xrotation Yrotation
        JOINT rFoot
        {
          OFFSET 0.73152 -45.1104 -5.12064
          CHANNELS 3 Zrotation Xrotation Yrotation
          End Site
          {
            OFFSET -1.1221 -3.69964 12.103
          }
        }
      }
    }
  }
  JOINT lButtock
  {
    OFFSET 8.77824 4.35084 1.2192
    CHANNELS 3 Zrotation Xrotation Yrotation
    JOINT lThigh
    {
      OFFSET 0 -1.70687 -2.19456
      CHANNELS 3 Zrotation Xrotation Yrotation
      JOINT lShin
      {
        OFFSET 0 -36.8199 0.73152
        CHANNELS 3 Zrotation Xrotation Yrotation
        JOINT lFoot
        {
          OFFSET -0.73152 -45.1104 -5.12064
          CHANNELS 3 Zrotation Xrotation Yrotation
          End Site
          {
            OFFSET 1.1221 -3.69964 12.103
          }
        }
      }
    }
  }
}
MOTION
Frames:	4
Frame Time:	0.03333
-0.03259999932058162 58.207001880442895 0.02570000081477458 9.458200454711914 21.924701690673828 3.5510995388031006 -16.92079734802246 14.990798950195312 -3.0473203659057617 5.675069808959961 -10.217498779296875 -0.923160195350647 -7.342579364776611 15.583199501037598 -8.95674991607666 10.433700561523438 -26.142702102661133 -15.22359848022461 -0.0 0.0 -0.0 -0.0 0.0 -0.0 -6.809469302445845e-14 1.9814800299687574e-13 1.3932398563022783e-14 61.029998779296875 34.78910446166992 2.2194886207580566 -18.936599731445312 -11.730300903320312 36.15679931640625 -0.17771002650260925 11.926899909973145 1.7011101245880127 -1.0128199390280201e-09 9.74554881238987e-10 -5.52229040273744e-10 -1.758379886140915e-09 1.674799854356479e-09 -9.470919604126493e-10 -1.0128199390280201e-09 9.745589890641781e-10 -5.522349799669257e-10 7.730909824371338 5.474879741668701 0.4173140823841095 -1.0128199390280201e-09 9.745420026519014e-10 -5.522189927553711e-10 2.9055399894714355 0.9651829600334167 0.10290199518203735 -1.0128199390280201e-09 9.74557989863456e-10 -5.522279855618706e-10 10.27859878540039 0.73180091381073 0.025912316516041756 -1.0128199390280201e-09 9.74557989863456e-10 -5.522219903575376e-10 2.221669912338257 -0.733487069606781 -0.208919957280159 -6.822089415733576e-14 1.981470001098662e-13 1.3694799892087321e-14 -65.39939880371094 41.0681037902832 -16.670700073242188 15.3641996383667 -8.109270095825195 -28.341293334960938 0.0628328025341034 7.1342597007751465 -1.0079200267791748 -1.3394699793778386e-09 -1.1287000223347832e-09 -6.973159549783503e-11 -2.316219882558812e-09 -1.947350058983943e-09 -1.1221299583974442e-10 -1.3394699793778386e-09 -1.1286900303275615e-09 -6.972029897855947e-11 -7.730909824371338 5.474879741668701 -0.4173140823841095 -1.3394598763483145e-09 -1.1286900303275615e-09 -6.972730032250851e-11 -2.9055399894714355 0.9651829600334167 -0.10290199518203735 -1.3394799713850603e-09 -1.1286900303275615e-09 -6.972989546882857e-11 -10.27859878540039 0.73180091381073 -0.025912316516041756 -1.3394699793778386e-09 -1.1286900303275615e-09 -6.973520372266506e-11 -2.221669912338257 -0.733487069606781 0.208919957280159 -2.0321699480147914e-16 0.0 -3.8825099822884138e-19 -60.96159744262695 -53.3505973815918 -54.138301849365234 -2.5743000507354736 72.8463134765625 2.971129894256592 2.0574300289154053 -3.010469913482666 14.764998435974121 2.0321699480147914e-16 0.0 3.8825099822884138e-19 11.682300567626953 13.520899772644043 6.3695502281188965 -0.10742798447608948 34.95159912109375 -2.5979297161102295 12.001799583435059 -20.6112003326416 32.18779754638672
-0.05840000004120007 58.189701011275254 0.050200001091896054 9.26919937133789 22.01460075378418 3.4724998474121094 -16.769201278686523 15.117300033569336 -3.12846040725708 5.660550594329834 -10.295899391174316 -0.9424881339073181 -7.325159072875977 15.527798652648926 -8.967339515686035 10.394700050354004 -26.03730010986328 -15.254602432250977 -0.0 0.0 -0.0 -0.0 0.0 -0.0 -1.89896004736817e-13 2.951139766588229e-13 -2.187009931877218e-13 61.02479553222656 34.978797912597656 2.4126224517822266 -18.845199584960938 -11.625101089477539 35.94489288330078 -0.1779559999704361 11.9350004196167 1.7022898197174072 6.124649676308991e-10 -1.8316099748005854e-09 3.283039951007538e-10 1.0580699649764824e-09 -3.1408100564789265e-09 5.574199435365301e-10 6.124679652330656e-10 -1.8316099748005854e-09 3.282989713415674e-10 7.730909824371338 5.474879741668701 0.4173140823841095 6.124689644337877e-10 -1.8316299588150287e-09 3.283149863086976e-10 2.9055399894714355 0.9651829600334167 0.10290199518203735 6.124700191456611e-10 -1.8316099748005854e-09 3.283050220570516e-10 10.27859878540039 0.73180091381073 0.025912316516041756 6.124609708280104e-10 -1.8316099748005854e-09 3.2831098950580895e-10 2.221669912338257 -0.733487069606781 -0.208919957280159 -1.9002700346430756e-13 2.951139766588229e-13 -2.1892299713506536e-13 -65.38109588623047 41.138607025146484 -16.66360092163086 15.363200187683105 -8.108930587768555 -28.339599609375 0.060907188802957535 7.024920463562012 -0.9923139810562134 8.611250601475717e-10 2.9063300654996738e-09 1.4392500524706975e-09 1.4967500572282688e-09 5.03075980873291e-09 2.4827799816051765e-09 8.611189539209363e-10 2.9063300654996738e-09 1.4392600444779191e-09 -7.730909824371338 5.474879741668701 -0.4173140823841095 8.611260593482939e-10 2.9063398354622905e-09 1.4392500524706975e-09 -2.9055399894714355 0.9651829600334167 -0.10290199518203735 8.61116011829921e-10 2.9063300654996738e-09 1.4392500524706975e-09 -10.27859878540039 0.73180091381073 -0.025912316516041756 8.611260593482939e-10 2.9063398354622905e-09 1.4392399494411734e-09 -2.221669912338257 -0.733487069606781 0.208919957280159 -2.0321699480147914e-16 0.0 -3.8825099822884138e-19 -60.85150909423828 -53.28070068359375 -54.183902740478516 -2.5824902057647705 72.88510131835938 2.9743499755859375 2.0735301971435547 -3.061349868774414 14.767597198486328 2.0321699480147914e-16 0.0 3.8825099822884138e-19 11.836400985717773 13.422300338745117 6.299489498138428 -0.10520300269126892 35.131507873535156 -2.605179786682129 12.07909870147705 -20.643800735473633 32.28730010986328
-0.06040000003404497 58.165597273694274 0.059900001130148116 9.141899108886719 22.068897247314453 3.4635002613067627 -16.65260124206543 15.14220142364502 -3.2159595489501953 5.671030044555664 -10.3277006149292 -0.9604032039642334 -7.3065996170043945 15.396700859069824 -8.974451065063477 10.28969955444336 -25.812000274658203 -15.290301322937012 -0.0 0.0 -0.0 -0.0 0.0 -0.0 -3.019849995067325e-13 3.232279895126755e-13 -6.282299984047834e-13 60.948299407958984 35.22389602661133 2.6550168991088867 -18.752403259277344 -11.519100189208984 35.73039627075195 -0.1771859973669052 11.909599304199219 1.6985598802566528 2.820490063726311e-09 -5.238089961778769e-09 1.6062400298721968e-09 4.88553997257668e-09 -8.988609856430685e-09 2.7448598949320058e-09 2.8205000557335325e-09 -5.238089961778769e-09 1.6062400298721968e-09 7.730909824371338 5.474879741668701 0.4173140823841095 2.820490063726311e-09 -5.238089961778769e-09 1.6062400298721968e-09 2.9055399894714355 0.9651829600334167 0.10290199518203735 2.820509825696149e-09 -5.238089961778769e-09 1.6062400298721968e-09 10.27859878540039 0.73180091381073 0.025912316516041756 2.820490063726311e-09 -5.2380797477269425e-09 1.606249910857116e-09 2.221669912338257 -0.733487069606781 -0.208919957280159 -3.021749788324063e-13 3.232299952866946e-13 -6.283519711491881e-13 -65.339599609375 41.19070053100586 -16.72549819946289 15.340801239013672 -8.088970184326172 -28.292999267578125 0.05904539301991463 6.917479991912842 -0.9769859910011292 4.017359778174523e-09 7.804619173157334e-09 3.0247799820415366e-09 6.96131019495283e-09 1.3496699757808983e-08 5.203879993587179e-09 4.01733979416008e-09 7.804619173157334e-09 3.0247899740487583e-09 -7.730909824371338 5.474879741668701 -0.4173140823841095 4.017349564122696e-09 7.804609403194718e-09 3.0247799820415366e-09 -2.9055399894714355 0.9651829600334167 -0.10290199518203735 4.017349564122696e-09 7.804609403194718e-09 3.0247799820415366e-09 -10.27859878540039 0.73180091381073 -0.025912316516041756 4.017359778174523e-09 7.804619173157334e-09 3.0247799820415366e-09 -2.221669912338257 -0.733487069606781 0.208919957280159 -2.0321699480147914e-16 0.0 -3.8825099822884138e-19 -60.84139633178711 -53.260101318359375 -54.33300018310547 -2.5884296894073486 72.9180908203125 2.9760098457336426 2.0855002403259277 -3.0834403038024902 14.796299934387207 2.0321699480147914e-16 0.0 3.8825099822884138e-19 11.953699111938477 13.284000396728516 6.291059970855713 -0.10330300033092499 35.28839874267578 -2.6116700172424316 12.153698921203613 -20.698902130126953 32.35790252685547
-0.055900000102254155 58.14559847980448 0.07160000095280424 9.188499450683594 22.052600860595703 3.488199472427368 -16.662996292114258 15.24439811706543 -3.234769821166992 5.6840996742248535 -10.395401954650879 -0.9648888111114502 -7.2910895347595215 15.32390022277832 -8.979940414428711 10.264098167419434 -25.643604278564453 -15.306397438049316 -0.0 0.0 -0.0 -0.0 0.0 -0.0 -2.973590069923343e-13 2.530479894635035e-13 -6.580510333691059e-13 60.92569351196289 35.411598205566406 2.8444106578826904 -18.685001373291016 -11.442399978637695 35.57550048828125 -0.17827698588371277 11.945799827575684 1.7038800716400146 3.4714100483057564e-09 -6.059109658451689e-09 1.991099951581532e-09 6.015549836035916e-09 -1.0400399652610304e-08 3.404790227534704e-09 3.4714100483057564e-09 -6.059109658451689e-09 1.991099951581532e-09 7.730909824371338 5.474879741668701 0.4173140823841095 3.4714100483057564e-09 -6.059109658451689e-09 1.991099951581532e-09 2.9055399894714355 0.9651829600334167 0.10290199518203735 3.471419818268373e-09 -6.059109658451689e-09 1.991099951581532e-09 10.27859878540039 0.73180091381073 0.025912316516041756 3.4714000562985348e-09 -6.059109658451689e-09 1.9911099435887536e-09 2.221669912338257 -0.733487069606781 -0.208919957280159 -2.9751299080588156e-13 2.530509710194778e-13 -6.581669887914532e-13 -65.2803955078125 41.26940155029297 -16.78499984741211 15.327999114990234 -8.077630996704102 -28.26650047302246 0.0584556981921196 6.882619857788086 -0.9720160365104675 4.752890081505257e-09 8.355519831582114e-09 2.9755700126088414e-09 8.231909376377189e-09 1.4444899498755603e-08 5.113939938183876e-09 4.7528696534016035e-09 8.355510061619498e-09 2.9755899966232846e-09 -7.730909824371338 5.474879741668701 -0.4173140823841095 4.75287986745343e-09 8.355510061619498e-09 2.9755700126088414e-09 -2.9055399894714355 0.9651829600334167 -0.10290199518203735 4.7528696534016035e-09 8.355510061619498e-09 2.9755700126088414e-09 -10.27859878540039 0.73180091381073 -0.025912316516041756 4.752890081505257e-09 8.355519831582114e-09 2.9755700126088414e-09 -2.221669912338257 -0.733487069606781 0.208919957280159 -2.0321699480147914e-16 0.0 -3.8825099822884138e-19 -60.91639709472656 -53.224613189697266 -54.470497131347656 -2.603519916534424 72.9823989868164 2.9867594242095947 2.0998501777648926 -3.0912303924560547 14.86390209197998 2.0321699480147914e-16 0.0 3.8825099822884138e-19 11.986799240112305 13.231200218200684 6.315659523010254 -0.10186399519443512 35.42159652709961 -2.618220329284668 12.191400527954102 -20.72210121154785 32.39659881591797
